<svg width="28" height="28" viewBox="0 0 28 28" fill="none" xmlns="http://www.w3.org/2000/svg">
<path d="M3.70312 22.6992C2.56641 22.6992 1.88672 22.0195 1.88672 20.8711V20.1562L5.48438 17.0156C6 16.5586 6.5625 16.3242 7.07812 16.3242C7.65234 16.3242 8.25 16.5586 8.76562 17.0391L11.0039 19.0547L16.6055 14.0859C17.1797 13.5703 17.8242 13.3359 18.4922 13.3359C19.1367 13.3359 19.8047 13.582 20.3555 14.0977L25.7461 19.0898V20.8945C25.7461 22.0195 25.0547 22.6992 23.9414 22.6992H3.70312ZM8.78906 14.0859C7.19531 14.0859 5.89453 12.7852 5.89453 11.1914C5.89453 9.60938 7.19531 8.29688 8.78906 8.29688C10.3711 8.29688 11.6719 9.60938 11.6719 11.1914C11.6719 12.7852 10.3711 14.0859 8.78906 14.0859ZM3.67969 24.5742H23.9531C26.4141 24.5742 27.6328 23.3672 27.6328 20.9531V6.63281C27.6328 4.21875 26.4141 3 23.9531 3H3.67969C1.23047 3 0 4.21875 0 6.63281V20.9531C0 23.3672 1.23047 24.5742 3.67969 24.5742Z" fill="black"/>
</svg>
