<svg width="29" height="28" viewBox="0 0 29 28" fill="none" xmlns="http://www.w3.org/2000/svg">
<path d="M3.67969 24.3477H25.1016C27.5391 24.3477 28.7812 23.1289 28.7812 20.7148V8.44531C28.7812 6.03125 27.5391 4.82422 25.1016 4.82422H21.75C20.8242 4.82422 20.543 4.63672 20.0156 4.05078L19.0781 2.99609C18.4922 2.35156 17.8945 2 16.6875 2H12.0117C10.8047 2 10.207 2.35156 9.62109 2.99609L8.68359 4.05078C8.15625 4.625 7.86328 4.82422 6.94922 4.82422H3.67969C1.23047 4.82422 0 6.03125 0 8.44531V20.7148C0 23.1289 1.23047 24.3477 3.67969 24.3477ZM14.3906 20.8906C10.8398 20.8906 7.99219 18.0547 7.99219 14.4805C7.99219 10.918 10.8398 8.08203 14.3906 8.08203C17.9414 8.08203 20.7773 10.918 20.7773 14.4805C20.7773 18.0547 17.9297 20.8906 14.3906 20.8906ZM14.3906 19.1094C16.9453 19.1094 19.0078 17.0586 19.0078 14.4805C19.0078 11.9141 16.9453 9.85156 14.3906 9.85156C11.8359 9.85156 9.76172 11.9141 9.76172 14.4805C9.76172 17.0586 11.8477 19.1094 14.3906 19.1094ZM21.5625 10.168C21.5625 9.37109 22.2656 8.66797 23.0859 8.66797C23.8945 8.66797 24.5859 9.37109 24.5859 10.168C24.5859 11 23.8945 11.668 23.0859 11.6797C22.2656 11.6797 21.5625 11.0117 21.5625 10.168Z" fill="black"/>
</svg>
