<svg width="330" height="107" viewBox="0 0 330 107" fill="none" xmlns="http://www.w3.org/2000/svg">
    <g clip-path="url(#clip0_205_35)">
        <mask id="mask0_205_35" style="mask-type:luminance" maskUnits="userSpaceOnUse" x="0" y="0" width="330"
            height="107">
            <path d="M330 0H0V106.913H330V0Z" fill="white" />
        </mask>
        <g mask="url(#mask0_205_35)">
            <mask id="mask1_205_35" style="mask-type:luminance" maskUnits="userSpaceOnUse" x="0" y="0" width="331"
                height="108">
                <path fill-rule="evenodd" clip-rule="evenodd" d="M0.953369 0.519348H330.954V107.433H0.953369V0.519348Z"
                    fill="white" />
            </mask>
            <g mask="url(#mask1_205_35)">
                <path fill-rule="evenodd" clip-rule="evenodd"
                    d="M114.299 106.443V38.7271C114.299 34.3804 117.825 30.8553 122.176 30.8553H130.396V101.546C130.396 104.25 128.202 106.443 125.498 106.443H114.299Z"
                    fill="#66954D" />
                <path fill-rule="evenodd" clip-rule="evenodd"
                    d="M130.77 9.24227C130.77 13.8945 126.997 17.664 122.346 17.664C117.696 17.664 113.922 13.8945 113.922 9.24227C113.922 4.59613 117.696 0.820557 122.346 0.820557C126.997 0.820557 130.77 4.59613 130.77 9.24227Z"
                    fill="#66954D" />
                <path fill-rule="evenodd" clip-rule="evenodd"
                    d="M51.9109 48.9203C51.9109 48.9203 71.61 106.235 71.6955 106.44L89.1885 106.449L64.5975 38.4305C62.648 33.036 60.173 30.8336 57.316 30.8336H40.8254L22.0703 84.73L14.5262 106.412L32.841 106.443L51.6755 48.9203H51.9109Z"
                    fill="white" />
                <path fill-rule="evenodd" clip-rule="evenodd"
                    d="M2.7592 94.3646C2.7592 100.923 8.00254 106.244 14.5261 106.412L22.0703 84.73L40.8224 30.8337H57.316C60.173 30.8337 62.648 33.036 64.5975 38.4305L85.9529 97.5047L88.5591 104.683L89.1916 106.449H93.3504C97.512 106.449 100.888 103.083 100.888 98.9189V29.2177C100.888 22.531 95.477 17.1365 88.8066 17.1365H2.7592V94.3646Z"
                    fill="#66954D" />
                <path fill-rule="evenodd" clip-rule="evenodd"
                    d="M51.9109 48.9203H51.6755L32.841 106.443H71.6955C71.5704 106.107 51.9109 48.9203 51.9109 48.9203Z"
                    fill="#66954D" />
                <mask id="mask2_205_35" style="mask-type:luminance" maskUnits="userSpaceOnUse" x="140" y="36"
                    width="1188" height="98">
                    <path d="M1327.75 36.3268H140.891V133.475H1327.75V36.3268Z" fill="white" />
                </mask>
                <g mask="url(#mask2_205_35)">
                    <path fill-rule="evenodd" clip-rule="evenodd"
                        d="M168.653 46.1146C173.955 46.1146 178.398 47.0226 181.981 48.8385C183.061 49.3781 183.748 50.188 184.043 51.2677C184.338 52.3473 184.19 53.4269 183.601 54.5068C183.012 55.6353 182.251 56.3347 181.318 56.6047C180.386 56.8746 179.404 56.7886 178.373 56.3471C176.802 55.6601 175.305 55.1814 173.881 54.9114C172.458 54.6415 170.764 54.5068 168.8 54.5068C167.18 54.5068 165.769 54.6907 164.567 55.0588C163.364 55.4269 162.345 55.9177 161.511 56.531C160.676 57.1443 160.05 57.8316 159.633 58.5923C159.216 59.3528 159.007 60.1258 159.007 60.911V61.3528C159.007 62.2851 159.167 63.095 159.486 63.782C159.805 64.469 160.369 65.0947 161.179 65.6592C161.989 66.2236 163.106 66.7388 164.53 67.205C165.953 67.6713 167.794 68.1252 170.052 68.567C176.189 69.8429 180.582 71.7324 183.233 74.2353C185.884 76.7381 187.209 79.9525 187.209 83.8786V84.5412C187.209 89.5959 185.565 93.4483 182.276 96.0985C178.987 98.7485 174.127 100.074 167.696 100.074C164.652 100.074 161.695 99.6934 158.823 98.9327C155.951 98.172 153.533 97.1782 151.57 95.9512C150.392 95.2152 149.729 94.2703 149.582 93.117C149.434 91.9638 149.704 90.872 150.392 89.8414C151.079 88.7618 151.914 88.0992 152.895 87.8537C153.877 87.6085 154.933 87.8048 156.062 88.4426C157.78 89.424 159.67 90.1971 161.732 90.7615C163.793 91.3259 165.929 91.608 168.138 91.608C171.525 91.608 173.98 91.0068 175.501 89.8045C177.023 88.602 177.784 87.093 177.784 85.2772V84.762C177.784 82.7009 176.986 81.0934 175.391 79.9401C173.795 78.7868 171.23 77.8667 167.696 77.1797C164.603 76.5908 161.928 75.9038 159.67 75.1186C157.412 74.3334 155.534 73.3396 154.037 72.1371C152.539 70.9349 151.435 69.4871 150.723 67.7939C150.011 66.101 149.655 64.0275 149.655 61.5736V61.0584C149.655 58.997 150.06 57.0586 150.87 55.2427C151.68 53.4269 152.895 51.8442 154.515 50.4946C156.135 49.145 158.123 48.0778 160.48 47.2926C162.836 46.5071 165.56 46.1146 168.653 46.1146Z"
                        fill="#58595B" />
                </g>
                <mask id="mask3_205_35" style="mask-type:luminance" maskUnits="userSpaceOnUse" x="140" y="36"
                    width="1188" height="98">
                    <path d="M1327.75 36.3268H140.891V133.475H1327.75V36.3268Z" fill="white" />
                </mask>
                <g mask="url(#mask3_205_35)">
                    <path fill-rule="evenodd" clip-rule="evenodd"
                        d="M216.443 46.4827C217.719 46.4827 218.824 46.7771 219.756 47.366C220.689 47.9551 221.499 49.1081 222.186 50.8258L238.754 93.522C239.294 94.9452 239.294 96.1722 238.754 97.2026C238.214 98.2333 237.33 98.9448 236.103 99.3374C234.876 99.7302 233.661 99.7792 232.458 99.4847C231.255 99.1903 230.384 98.2578 229.844 96.6874L225.573 84.9093H207.017L202.673 96.9819C202.133 98.4051 201.31 99.2516 200.206 99.5216C199.101 99.7915 197.96 99.7302 196.782 99.3374C195.604 98.9448 194.745 98.2825 194.205 97.35C193.665 96.4174 193.665 95.2641 194.205 93.8901L210.773 50.8258C211.411 49.1081 212.209 47.9551 213.166 47.366C214.123 46.7771 215.215 46.4827 216.443 46.4827ZM216.295 58.2611C215.902 59.7332 215.522 61.046 215.154 62.1993C214.786 63.3526 214.307 64.7635 213.718 66.4322L209.815 77.106H222.775L218.946 66.4322C218.308 64.7145 217.805 63.2421 217.437 62.0154C217.068 60.7884 216.688 59.537 216.295 58.2611Z"
                        fill="#58595B" />
                </g>
                <mask id="mask4_205_35" style="mask-type:luminance" maskUnits="userSpaceOnUse" x="140" y="36"
                    width="1188" height="98">
                    <path d="M1327.75 36.3268H140.891V133.475H1327.75V36.3268Z" fill="white" />
                </mask>
                <g mask="url(#mask4_205_35)">
                    <path fill-rule="evenodd" clip-rule="evenodd"
                        d="M265.557 46.1146C270.859 46.1146 275.302 47.0226 278.886 48.8385C279.966 49.3781 280.654 50.188 280.948 51.2677C281.242 52.3473 281.094 53.4269 280.505 54.5068C279.917 55.6353 279.155 56.3347 278.223 56.6047C277.291 56.8746 276.309 56.7886 275.278 56.3471C273.706 55.6601 272.209 55.1814 270.786 54.9114C269.362 54.6415 267.668 54.5068 265.705 54.5068C264.085 54.5068 262.673 54.6907 261.471 55.0588C260.268 55.4269 259.249 55.9177 258.415 56.531C257.58 57.1443 256.954 57.8316 256.537 58.5923C256.12 59.3528 255.911 60.1258 255.911 60.911V61.3528C255.911 62.2851 256.071 63.095 256.39 63.782C256.709 64.469 257.273 65.0947 258.083 65.6592C258.894 66.2236 260.01 66.7388 261.434 67.205C262.857 67.6713 264.698 68.1252 266.957 68.567C273.093 69.8429 277.486 71.7324 280.137 74.2353C282.788 76.7381 284.113 79.9525 284.113 83.8786V84.5412C284.113 89.5959 282.469 93.4483 279.18 96.0985C275.891 98.7485 271.031 100.074 264.6 100.074C261.557 100.074 258.599 99.6934 255.727 98.9327C252.855 98.172 250.438 97.1782 248.474 95.9512C247.296 95.2152 246.633 94.2703 246.486 93.117C246.339 91.9638 246.608 90.872 247.296 89.8414C247.983 88.7618 248.818 88.0992 249.8 87.8537C250.781 87.6085 251.837 87.8048 252.966 88.4426C254.684 89.424 256.574 90.1971 258.636 90.7615C260.698 91.3259 262.833 91.608 265.042 91.608C268.429 91.608 270.884 91.0068 272.405 89.8045C273.927 88.602 274.688 87.093 274.688 85.2772V84.762C274.688 82.7009 273.89 81.0934 272.295 79.9401C270.7 78.7868 268.135 77.8667 264.6 77.1797C261.507 76.5908 258.832 75.9038 256.574 75.1186C254.316 74.3334 252.438 73.3396 250.941 72.1371C249.443 70.9349 248.339 69.4871 247.627 67.7939C246.915 66.101 246.559 64.0275 246.559 61.5736V61.0584C246.559 58.997 246.965 57.0586 247.774 55.2427C248.584 53.4269 249.8 51.8442 251.419 50.4946C253.039 49.145 255.028 48.0778 257.384 47.2926C259.74 46.5071 262.465 46.1146 265.557 46.1146Z"
                        fill="#58595B" />
                </g>
                <mask id="mask5_205_35" style="mask-type:luminance" maskUnits="userSpaceOnUse" x="140" y="36"
                    width="1188" height="98">
                    <path d="M1327.75 36.3268H140.891V133.475H1327.75V36.3268Z" fill="white" />
                </mask>
                <g mask="url(#mask5_205_35)">
                    <path fill-rule="evenodd" clip-rule="evenodd"
                        d="M325.35 46.9244C326.477 46.9244 327.299 47.3047 327.816 48.0654C328.331 48.8261 328.589 49.7462 328.589 50.8258C328.589 51.8565 328.331 52.7643 327.816 53.5497C327.299 54.3349 326.477 54.7275 325.35 54.7275H303.333V68.6403H323.876C324.956 68.6403 325.754 69.0208 326.271 69.7815C326.785 70.5422 327.044 71.4379 327.044 72.4683C327.044 73.499 326.785 74.3947 326.271 75.1554C325.754 75.9161 324.956 76.2963 323.876 76.2963H303.333V91.4609H325.864C326.994 91.4609 327.816 91.8535 328.331 92.6387C328.848 93.4238 329.103 94.3316 329.103 95.3623C329.103 96.4419 328.848 97.362 328.331 98.1227C327.816 98.8834 326.994 99.2639 325.864 99.2639H300.239C297.883 99.2639 296.252 98.8221 295.342 97.9388C294.434 97.0555 293.98 95.4604 293.98 93.1538V53.0343C293.98 50.7277 294.434 49.1329 295.342 48.2496C296.252 47.366 297.883 46.9244 300.239 46.9244H325.35Z"
                        fill="#58595B" />
                </g>
            </g>
        </g>
    </g>
    <defs>
        <path d="M 0.0 0.0 L 330.0 0.0 L 330.0 107.0 L 0.0 107.0 L 0.0 0.0 Z" fill-rule="evenodd" id="Fill" />
        <clipPath id="clip0_205_35">
            <rect width="330" height="106.913" fill="white" />
        </clipPath>
    </defs>
</svg>